<?xml version="1.0" encoding="UTF-8" standalone="no"?>
<!-- Generator: Adobe Illustrator 19.0.0, SVG Export Plug-In . SVG Version: 6.00 Build 0)  -->

<svg
   xmlns:dc="http://purl.org/dc/elements/1.1/"
   xmlns:cc="http://creativecommons.org/ns#"
   xmlns:rdf="http://www.w3.org/1999/02/22-rdf-syntax-ns#"
   xmlns:svg="http://www.w3.org/2000/svg"
   xmlns="http://www.w3.org/2000/svg"
   xmlns:sodipodi="http://sodipodi.sourceforge.net/DTD/sodipodi-0.dtd"
   xmlns:inkscape="http://www.inkscape.org/namespaces/inkscape"
   version="1.1"
   id="Capa_1"
   x="0px"
   y="0px"
   viewBox="0 0 192.701 192.701"
   style="enable-background:new 0 0 192.701 192.701;"
   xml:space="preserve"
   sodipodi:docname="up-arrow.svg"
   inkscape:version="0.92.5 (2060ec1f9f, 2020-04-08)"
   inkscape:export-filename="/home/dancab/MEGAsync/IT/FreeCodeCamp/05_PortfPage/icons/png/up-arrow.png"
   inkscape:export-xdpi="200"
   inkscape:export-ydpi="200"><metadata
   id="metadata56"><rdf:RDF><cc:Work
       rdf:about=""><dc:format>image/svg+xml</dc:format><dc:type
         rdf:resource="http://purl.org/dc/dcmitype/StillImage" /><dc:title></dc:title></cc:Work></rdf:RDF></metadata><defs
   id="defs54" /><sodipodi:namedview
   pagecolor="#fffcce"
   bordercolor="#666666"
   borderopacity="1"
   objecttolerance="10"
   gridtolerance="10"
   guidetolerance="10"
   inkscape:pageopacity="0"
   inkscape:pageshadow="2"
   inkscape:window-width="1920"
   inkscape:window-height="1029"
   id="namedview52"
   showgrid="false"
   inkscape:pagecheckerboard="false"
   inkscape:zoom="1.2246952"
   inkscape:cx="-45.725664"
   inkscape:cy="96.3505"
   inkscape:window-x="0"
   inkscape:window-y="0"
   inkscape:window-maximized="1"
   inkscape:current-layer="Double_Chevron_Down" />
<g
   id="g19">
	<g
   id="Double_Chevron_Down">
		<path
   d="m 20.747,104.17426 75.61,-74.528004 75.61,74.540004 c 4.74,4.704 12.439,4.704 17.179,0 4.74,-4.704004 4.74,-12.319004 0,-17.011004 l -84.2,-82.997 c -4.559,-4.51100003 -12.608,-4.53500003 -17.191,0 l -84.2,83.009 c -4.74,4.692 -4.74,12.319 0,17.011004 4.753,4.679 12.452,4.679 17.192,-0.024 z"
   id="path2"
   style="fill:#faebd7;fill-opacity:1"
   inkscape:connector-curvature="0" />
		<path
   d="m 104.947,88.378256 c -4.559,-4.511 -12.608,-4.535 -17.191,0 l -84.2,82.997004 c -4.74,4.704 -4.74,12.319 0,17.011 4.74,4.704 12.439,4.704 17.179,0 l 75.622,-74.528 75.611,74.528 c 4.74,4.704 12.439,4.704 17.179,0 4.74,-4.704 4.74,-12.319 0,-17.011 z"
   id="path4"
   style="fill:#faebd7;fill-opacity:1"
   inkscape:connector-curvature="0" />
	</g>
	<g
   id="g7">
	</g>
	<g
   id="g9">
	</g>
	<g
   id="g11">
	</g>
	<g
   id="g13">
	</g>
	<g
   id="g15">
	</g>
	<g
   id="g17">
	</g>
</g>
<g
   id="g21">
</g>
<g
   id="g23">
</g>
<g
   id="g25">
</g>
<g
   id="g27">
</g>
<g
   id="g29">
</g>
<g
   id="g31">
</g>
<g
   id="g33">
</g>
<g
   id="g35">
</g>
<g
   id="g37">
</g>
<g
   id="g39">
</g>
<g
   id="g41">
</g>
<g
   id="g43">
</g>
<g
   id="g45">
</g>
<g
   id="g47">
</g>
<g
   id="g49">
</g>
</svg>